<?xml version="1.0" standalone="no"?><!DOCTYPE svg PUBLIC "-//W3C//DTD SVG 1.1//EN" "http://www.w3.org/Graphics/SVG/1.1/DTD/svg11.dtd"><svg t="1619531800616" class="icon" viewBox="0 0 1024 1024" version="1.1" xmlns="http://www.w3.org/2000/svg" p-id="37578" xmlns:xlink="http://www.w3.org/1999/xlink" width="200" height="200"><defs><style type="text/css"></style></defs><path d="M262.298 719.92v-99.256H60.422v-82.77l213.99-313.245h79.404v312.909h61.236v83.105h-61.236v99.256h-91.518z m0-182.361V368.991L148.91 537.558h113.387z m448.166 1.009v-83.106h214.662v196.493c-20.861 20.187-51.09 37.968-90.676 53.329-39.593 15.361-79.689 23.048-120.286 23.048-51.594 0-96.563-10.819-134.92-32.469-38.357-21.643-67.181-52.598-86.47-92.863-19.294-40.26-28.937-84.057-28.937-131.388 0-51.362 10.768-97.011 32.3-136.94 21.535-39.923 53.046-70.54 94.546-91.853 31.627-16.372 70.994-24.562 118.098-24.562 61.236 0 109.066 12.843 143.5 38.525 34.429 25.686 56.578 61.183 66.452 106.49l-98.92 18.506c-6.955-24.225-20.02-43.346-39.197-57.367-19.179-14.016-43.125-21.03-71.835-21.03-43.519 0-78.116 13.795-103.798 41.386-25.687 27.59-38.525 68.527-38.525 122.808 0 58.545 13.006 102.453 39.03 131.725 26.017 29.272 60.11 43.909 102.283 43.909 20.86 0 41.774-4.09 62.75-12.282 20.97-8.185 38.97-18.11 54-29.778v-62.581H710.464z" p-id="37579"></path></svg>