<?xml version="1.0" standalone="no"?><!DOCTYPE svg PUBLIC "-//W3C//DTD SVG 1.1//EN" "http://www.w3.org/Graphics/SVG/1.1/DTD/svg11.dtd"><svg t="1619531790157" class="icon" viewBox="0 0 1024 1024" version="1.1" xmlns="http://www.w3.org/2000/svg" p-id="37150" xmlns:xlink="http://www.w3.org/1999/xlink" width="200" height="200"><defs><style type="text/css"></style></defs><path d="M512 409.6a442.368 442.368 0 0 0-313.617067 130.116267l120.6272 120.6272C368.4352 610.884267 436.701867 580.266667 512 580.266667s143.5648 30.6176 192.989867 80.0768l120.6272-120.6272A442.368 442.368 0 0 0 512 409.6z" p-id="37151"></path><path d="M367.240533 708.573867L512 853.333333l144.759467-144.759466C619.656533 671.505067 568.456533 648.533333 512 648.533333s-107.656533 22.971733-144.759467 60.040534zM512 341.333333c141.175467 0 269.175467 57.412267 361.8816 150.1184l120.832-120.832C871.185067 247.0912 700.5184 170.666667 512 170.666667S152.814933 247.0912 29.2864 370.619733l120.832 120.832A510.395733 510.395733 0 0 1 512 341.333333z" p-id="37152"></path></svg>