<?xml version="1.0" standalone="no"?><!DOCTYPE svg PUBLIC "-//W3C//DTD SVG 1.1//EN" "http://www.w3.org/Graphics/SVG/1.1/DTD/svg11.dtd"><svg t="1624023304545" class="icon" viewBox="0 0 1024 1024" version="1.1" xmlns="http://www.w3.org/2000/svg" p-id="3540" xmlns:xlink="http://www.w3.org/1999/xlink" width="200" height="200"><defs><style type="text/css"></style></defs><path d="M518.023529 96.376471c96.376471 6.023529 174.682353 57.223529 216.847059 159.623529 39.152941 99.388235 21.082353 192.752941-51.2 268.047059-27.105882 27.105882-18.070588 33.129412 6.02353 51.2 102.4 69.270588 168.658824 165.647059 186.729411 292.141176 6.023529 36.141176 3.011765 57.223529-24.094117 63.247059-21.082353 0-33.129412-12.047059-39.152941-51.2-18.070588-150.588235-141.552941-304.188235-325.270589-286.117647-117.458824 3.011765-195.764706 72.282353-246.964706 153.6-30.117647 51.2-48.188235 84.329412-51.2 135.529412-3.011765 36.141176-9.035294 48.188235-36.141176 48.188235-27.105882-3.011765-30.117647-24.094118-24.094118-60.235294 15.058824-129.505882 84.329412-225.882353 189.741177-298.164706 24.094118-15.058824 27.105882-24.094118 6.023529-48.188235-75.294118-78.305882-93.364706-168.658824-54.211764-271.058824 39.152941-96.376471 129.505882-156.611765 246.964705-156.611764z m-12.047058 439.717647c102.4 0 183.717647-84.329412 183.717647-186.729412 0-105.411765-84.329412-186.729412-189.741177-186.729412-102.4 0-183.717647 84.329412-183.717647 186.729412-3.011765 105.411765 81.317647 186.729412 189.741177 186.729412z m0 0" fill="#EFA114" p-id="3541"></path></svg>