<?xml version="1.0" standalone="no"?><!DOCTYPE svg PUBLIC "-//W3C//DTD SVG 1.1//EN" "http://www.w3.org/Graphics/SVG/1.1/DTD/svg11.dtd"><svg t="1619531793578" class="icon" viewBox="0 0 1024 1024" version="1.1" xmlns="http://www.w3.org/2000/svg" p-id="37293" xmlns:xlink="http://www.w3.org/1999/xlink" width="200" height="200"><defs><style type="text/css"></style></defs><path d="M877.36 263.23a50.09 50.09 0 0 1 50.09 50.09V714a50.09 50.09 0 0 1-50.09 50.09h-50.09A50.09 50.09 0 0 1 777.18 714V313.32a50.09 50.09 0 0 1 50.09-50.09zM652 363.41a50.09 50.09 0 0 1 50 50.09V714a50.09 50.09 0 0 1-50 50.12h-50.13A50.09 50.09 0 0 1 551.78 714V413.5a50.09 50.09 0 0 1 50.09-50.09zM426.56 463.59a50.09 50.09 0 0 1 50.09 50.09V714a50.09 50.09 0 0 1-50.09 50.09h-50.09A50.09 50.09 0 0 1 326.38 714V513.67a50.09 50.09 0 0 1 50.09-50.09z m-225.4 75.13a50.09 50.09 0 0 1 50.09 50.09V714a50.09 50.09 0 0 1-50.09 50.09h-50.09A50.09 50.09 0 0 1 101 714V588.81a50.09 50.09 0 0 1 50.09-50.09z" p-id="37294"></path></svg>