<?xml version="1.0" standalone="no"?><!DOCTYPE svg PUBLIC "-//W3C//DTD SVG 1.1//EN" "http://www.w3.org/Graphics/SVG/1.1/DTD/svg11.dtd"><svg t="1619531783282" class="icon" viewBox="0 0 1024 1024" version="1.1" xmlns="http://www.w3.org/2000/svg" p-id="36864" xmlns:xlink="http://www.w3.org/1999/xlink" width="200" height="200"><defs><style type="text/css"></style></defs><path d="M512 0C229.23 0 0 229.23 0 512s229.23 512 512 512 512-229.23 512-512S794.77 0 512 0z m-49.58 200.32c13.45-13.44 25-22.4 46.72-22.4 24.32-1.92 46.72 9.6 55.68 26.88 10.24 12.17 16 39 13.44 55 0 4.48-3.2 34.56-4.48 42.89l-17.92 227.2c0 22.41-4.48 44.8-13.45 62.08-4.48 13.44-17.92 22.4-35.83 22.4-13.44 0-26.89-9-31.36-22.4-9-22.4-13.44-40.32-13.44-62.08l-12.16-222.68c-4.48-40.31-4.48-26.88-4.48-49.28 0-21.77 4.48-39.69 17.28-57.61z m98.87 627.84c-13.44 13.44-31.36 17.92-44.8 17.92-17.92 0-35.84-4.48-49.27-17.92S444.8 796.81 444.8 775c0-17.92 4.48-35.83 17.92-49.27s31.36-22.41 49.28-22.41 35.84 9 49.28 22.41 17.92 31.4 17.92 49.27c-0.64 21.81-5.12 39.73-17.92 53.17z" fill="#9A999A" p-id="36865"></path></svg>