<?xml version="1.0" standalone="no"?><!DOCTYPE svg PUBLIC "-//W3C//DTD SVG 1.1//EN" "http://www.w3.org/Graphics/SVG/1.1/DTD/svg11.dtd"><svg t="1619531786852" class="icon" viewBox="0 0 1024 1024" version="1.1" xmlns="http://www.w3.org/2000/svg" p-id="37006" xmlns:xlink="http://www.w3.org/1999/xlink" width="200" height="200"><defs><style type="text/css"></style></defs><path d="M512 789.317818a53.341091 53.341091 0 1 0 0-106.635636 53.341091 53.341091 0 0 0 0 106.635636z" p-id="37007"></path><path d="M180.130909 180.130909A468.014545 468.014545 0 0 1 512 42.682182c129.582545 0 246.970182 52.596364 331.869091 137.448727A468.014545 468.014545 0 0 1 981.317818 512c0 129.582545-52.596364 246.970182-137.448727 331.869091A468.014545 468.014545 0 0 1 512 981.317818c-129.582545 0-246.970182-52.596364-331.869091-137.448727A468.014545 468.014545 0 0 1 42.682182 512c0-129.582545 52.596364-246.970182 137.448727-331.869091zM512 128c-106.030545 0-202.007273 42.914909-271.546182 112.453818A382.650182 382.650182 0 0 0 128 512c0 106.030545 42.914909 202.007273 112.453818 271.546182A382.650182 382.650182 0 0 0 512 896c106.030545 0 202.007273-42.914909 271.546182-112.453818A382.650182 382.650182 0 0 0 896 512c0-106.030545-42.914909-202.007273-112.453818-271.546182A382.650182 382.650182 0 0 0 512 128z" p-id="37008"></path><path d="M512 213.317818c23.552 0 42.682182 19.083636 42.682182 42.682182v341.317818a42.682182 42.682182 0 1 1-85.364364 0V256c0-23.552 19.083636-42.682182 42.682182-42.682182z" p-id="37009"></path></svg>