<?xml version="1.0" standalone="no"?><!DOCTYPE svg PUBLIC "-//W3C//DTD SVG 1.1//EN" "http://www.w3.org/Graphics/SVG/1.1/DTD/svg11.dtd"><svg t="1622203793855" class="icon" viewBox="0 0 1024 1024" version="1.1" xmlns="http://www.w3.org/2000/svg" p-id="1167" xmlns:xlink="http://www.w3.org/1999/xlink" width="200" height="200"><defs><style type="text/css"></style></defs><path d="M512 1024c282.624 0 512-229.376 512-512S794.624 0 512 0 0 229.376 0 512s229.376 512 512 512z m269.312-705.536c18.432-18.432 49.152-18.432 67.584 0 18.432 18.432 18.432 49.152 0 67.584L465.92 770.048c-17.408 17.408-46.08 18.432-65.536 2.048L177.152 580.608c-20.48-17.408-22.528-47.104-5.12-67.584 17.408-20.48 47.104-22.528 67.584-5.12L430.08 670.72l351.232-352.256z" fill="#22BCBA" p-id="1168"></path></svg>