<?xml version="1.0" standalone="no"?><!DOCTYPE svg PUBLIC "-//W3C//DTD SVG 1.1//EN" "http://www.w3.org/Graphics/SVG/1.1/DTD/svg11.dtd"><svg t="1619531780252" class="icon" viewBox="0 0 1024 1024" version="1.1" xmlns="http://www.w3.org/2000/svg" p-id="36720" xmlns:xlink="http://www.w3.org/1999/xlink" width="200" height="200"><defs><style type="text/css"></style></defs><path d="M625.792 568.874667c-94.122667 0-170.666667-76.544-170.666667-170.666667s76.544-170.666667 170.666667-170.666667 170.666667 76.544 170.666667 170.666667-76.586667 170.666667-170.666667 170.666667z m0-227.541334c-31.402667 0-56.874667 25.514667-56.874667 56.874667s25.514667 56.874667 56.874667 56.874667c31.402667 0 56.874667-25.514667 56.874667-56.874667S657.152 341.333333 625.792 341.333333z" p-id="36721"></path><path d="M796.458667 796.458667c-31.445333 0-56.874667-25.429333-56.874667-56.874667 0-62.72-51.072-113.792-113.792-113.792-62.762667 0-113.792 51.072-113.792 113.792 0 31.445333-25.472 56.874667-56.874667 56.874667s-56.874667-25.429333-56.874666-56.874667c0-125.482667 102.101333-227.541333 227.541333-227.541333 125.482667 0 227.541333 102.058667 227.541333 227.541333 0 31.402667-25.429333 56.874667-56.874666 56.874667zM284.458667 398.208H56.874667C25.472 398.208 0 372.736 0 341.333333s25.472-56.874667 56.874667-56.874666h227.541333C315.861333 284.458667 341.333333 309.930667 341.333333 341.333333s-25.472 56.874667-56.874666 56.874667zM284.458667 568.874667H56.874667C25.472 568.874667 0 543.445333 0 512c0-31.402667 25.472-56.874667 56.874667-56.874667h227.541333c31.402667 0 56.874667 25.472 56.874667 56.874667 0.042667 31.445333-25.429333 56.874667-56.832 56.874667zM284.458667 739.541333H56.874667C25.472 739.541333 0 714.112 0 682.666667s25.472-56.874667 56.874667-56.874667h227.541333c31.402667 0 56.874667 25.429333 56.874667 56.874667s-25.429333 56.874667-56.832 56.874666z" p-id="36722"></path><path d="M901.461333 1024H227.541333c-62.762667 0-113.792-51.072-113.792-113.792v-73.173333c0-31.445333 25.472-56.874667 56.874667-56.874667s56.874667 25.429333 56.874667 56.874667v73.173333h673.877333c5.930667 0 9.130667-2.56 9.6-3.157333l-0.853333-792.661334c-0.213333 1.365333-3.285333-0.597333-8.789334-0.597333H227.541333v73.130667c0 31.402667-25.472 56.874667-56.874666 56.874666s-56.874667-25.472-56.874667-56.874666V113.792C113.792 51.029333 164.821333 0 227.541333 0h673.877334C969.002667 0 1024 51.029333 1024 113.792v796.458667c0 62.677333-54.997333 113.749333-122.538667 113.749333z" p-id="36723"></path></svg>