<?xml version="1.0" standalone="no"?><!DOCTYPE svg PUBLIC "-//W3C//DTD SVG 1.1//EN" "http://www.w3.org/Graphics/SVG/1.1/DTD/svg11.dtd"><svg t="1619531771299" class="icon" viewBox="0 0 1024 1024" version="1.1" xmlns="http://www.w3.org/2000/svg" p-id="36434" xmlns:xlink="http://www.w3.org/1999/xlink" width="200" height="200"><defs><style type="text/css"></style></defs><path d="M984.471184 315.856039c-25.762003-60.716284-62.570008-115.378801-109.401371-162.470866-46.98692-47.246182-101.597584-84.385467-162.316749-110.385127C649.602597 15.959018 582.655382 2.248378 513.772344 2.248378c-68.955055 0-135.861941 13.510432-198.862612 40.158246-60.837273 25.731756-115.469542 62.564247-162.377243 109.471948-46.907701 46.907701-83.740192 101.53997-109.471948 162.375804-26.646374 63.002111-40.158247 129.908997-40.158247 198.862611 0 68.955055 13.511872 135.861941 40.158247 198.862612C68.792296 772.816872 105.624787 827.449141 152.532489 874.356843c46.907701 46.907701 101.53997 83.740192 162.377243 109.471947 63.000671 26.647815 129.907556 40.158247 198.862612 40.158247s135.861941-13.510432 198.861171-40.158247c60.837273-25.731756 115.469542-62.564247 162.377244-109.471947s83.740192-101.53997 109.471948-162.377244c26.647815-63.000671 40.158247-129.907556 40.158246-198.862612 0-68.070684-13.514753-134.43744-40.169769-197.260948zM699.576792 554.839448c23.863629 0 43.210337 19.346708 43.210337 43.210337s-19.346708 43.210337-43.210337 43.210336h-142.594111v113.78722c0 23.863629-19.346708 43.210337-43.210337 43.210337s-43.210337-19.346708-43.210337-43.210337v-113.78722h-142.594111c-23.863629 0-43.210337-19.346708-43.210337-43.210336s19.346708-43.210337 43.210337-43.210337h142.594111v-57.613782h-142.594111c-23.863629 0-43.210337-19.346708-43.210337-43.210337s19.346708-43.210337 43.210337-43.210337h105.971911l-109.06289-109.06289c-16.873636-16.875077-16.873636-44.232981 0-61.108058 16.875077-16.876517 44.234422-16.876517 61.109498 0l129.226274 129.227714 129.226273-129.227714c16.875077-16.876517 44.235862-16.876517 61.109498 0 16.875077 16.875077 16.875077 44.232981 0 61.108058l-109.062889 109.06289h103.091221c23.863629 0 43.210337 19.346708 43.210337 43.210337s-19.346708 43.210337-43.210337 43.210337h-142.594111v57.613782h142.594111z" p-id="36435"></path></svg>