<?xml version="1.0" standalone="no"?><!DOCTYPE svg PUBLIC "-//W3C//DTD SVG 1.1//EN" "http://www.w3.org/Graphics/SVG/1.1/DTD/svg11.dtd"><svg t="1622032713313" class="icon" viewBox="0 0 1024 1024" version="1.1" xmlns="http://www.w3.org/2000/svg" p-id="5479" xmlns:xlink="http://www.w3.org/1999/xlink" width="200" height="200"><defs><style type="text/css"></style></defs><path d="M0 460.8v168.96c0 20.48 10.24 35.84 30.72 46.08l266.24 133.12c5.12 10.24 15.36 10.24 20.48 10.24h384c10.24 0 15.36 0 25.6-5.12l266.24-133.12c20.48-10.24 30.72-25.6 30.72-46.08V460.8c0-30.72-25.6-51.2-51.2-51.2H51.2c-25.6 0-51.2 25.6-51.2 51.2zM665.6 1024H358.4c-30.72 0-51.2-20.48-51.2-51.2v-153.6h409.6v153.6c0 30.72-20.48 51.2-51.2 51.2zM870.4 0H153.6c-30.72 0-51.2 20.48-51.2 51.2v307.2h819.2V51.2c0-30.72-20.48-51.2-51.2-51.2zM363.52 230.4h-51.2c-30.72 0-51.2-20.48-51.2-51.2s20.48-51.2 51.2-51.2h51.2c30.72 0 51.2 20.48 51.2 51.2s-25.6 51.2-51.2 51.2z m348.16 0h-51.2c-30.72 0-51.2-20.48-51.2-51.2s20.48-51.2 51.2-51.2h51.2c30.72 0 51.2 20.48 51.2 51.2s-20.48 51.2-51.2 51.2z" fill="#EFA114" p-id="5480"></path></svg>