<?xml version="1.0" standalone="no"?><!DOCTYPE svg PUBLIC "-//W3C//DTD SVG 1.1//EN" "http://www.w3.org/Graphics/SVG/1.1/DTD/svg11.dtd"><svg t="1624719812540" class="icon" viewBox="0 0 1024 1024" version="1.1" xmlns="http://www.w3.org/2000/svg" p-id="17415" xmlns:xlink="http://www.w3.org/1999/xlink" width="200" height="200"><defs><style type="text/css"></style></defs><path d="M999.538236 960.996869a460.239006 460.239006 0 0 0-287.195892-409.348443 301.244495 301.244495 0 0 0 126.712422-243.191134 326.735775 326.735775 0 0 0-652.447579 0A301.244495 301.244495 0 0 0 312.761625 551.274436 460.889988 460.889988 0 0 0 24.355767 955.787016a51.075558 51.075558 0 0 0-1.76695 12.466648l0.557985 4.651869a54.145471 54.145471 0 0 0 108.104947 0v-0.650982h1.023972a367.577622 367.577622 0 0 1 349.063145-357.249914 347.668184 347.668184 0 0 0 62.240242 0 367.949612 367.949612 0 0 1 348.690156 349.714127 22.699359 22.699359 0 0 0 0 3.627897l0.558984 4.651869a54.145471 54.145471 0 0 0 108.105948 0v-4.651869a41.120839 41.120839 0 0 0-0.744979-6.976803zM511.854004 512.295537a205.140208 205.140208 0 1 1 0-409.349443 211.187038 211.187038 0 0 1 216.955875 204.674221A211.09404 211.09404 0 0 1 511.575012 512.015545z" p-id="17416" fill="#F19D00"></path></svg>