<?xml version="1.0" standalone="no"?><!DOCTYPE svg PUBLIC "-//W3C//DTD SVG 1.1//EN" "http://www.w3.org/Graphics/SVG/1.1/DTD/svg11.dtd"><svg t="1624719834753" class="icon" viewBox="0 0 1024 1024" version="1.1" xmlns="http://www.w3.org/2000/svg" p-id="17649" xmlns:xlink="http://www.w3.org/1999/xlink" width="200" height="200"><defs><style type="text/css"></style></defs><path d="M512 102.4a409.6 409.6 0 1 1-409.6 409.6 409.6 409.6 0 0 1 409.6-409.6m0-102.4a512 512 0 1 0 512 512A512 512 0 0 0 512 0z" fill="#F19D00" p-id="17650"></path><path d="M512 204.8a51.2 51.2 0 0 1 51.2 51.2v307.2H460.8V256a51.2 51.2 0 0 1 51.2-51.2z" fill="#F19D00" p-id="17651"></path><path d="M460.8 512h262.656a45.056 45.056 0 0 1 45.056 45.056v12.8a44.544 44.544 0 0 1-44.544 44.544H460.8v-102.4z" fill="#F19D00" p-id="17652"></path></svg>