<?xml version="1.0" standalone="no"?><!DOCTYPE svg PUBLIC "-//W3C//DTD SVG 1.1//EN" "http://www.w3.org/Graphics/SVG/1.1/DTD/svg11.dtd"><svg t="1624721345351" class="icon" viewBox="0 0 1228 1024" version="1.1" xmlns="http://www.w3.org/2000/svg" p-id="98367" xmlns:xlink="http://www.w3.org/1999/xlink" width="239.84375" height="200"><defs><style type="text/css"></style></defs><path d="M826.026667 534.186667a291.328 291.328 0 0 1 52.053333 45.226666A301.6704 301.6704 0 0 1 959.146667 785.066667a42.666667 42.666667 0 0 1-85.333334 0 215.927467 215.927467 0 0 0-58.026666-147.626667 227.874133 227.874133 0 0 0-37.546667-32.426667A43.1104 43.1104 0 0 1 767.146667 546.133333a42.666667 42.666667 0 0 1 58.88-11.946666z m-173.226667 34.133333A217.2928 217.2928 0 0 0 440.32 785.066667a42.666667 42.666667 0 0 1-85.333333 0 302.148267 302.148267 0 0 1 171.52-272.213334 183.261867 183.261867 0 0 1-51.2-126.293333 182.203733 182.203733 0 1 1 182.613333 181.76h-5.12z m100.693333-181.76A96.426667 96.426667 0 1 0 651.946667 482.986667h7.68a96.938667 96.938667 0 0 0 93.866666-96.426667zM989.866667 1024H324.266667a136.942933 136.942933 0 0 1-136.533334-136.533333v-102.4H273.066667v102.4a51.2 51.2 0 0 0 51.2 51.2H989.866667a51.2 51.2 0 0 0 51.2-51.2V136.533333A51.2 51.2 0 0 0 989.866667 85.333333H324.266667A51.2 51.2 0 0 0 273.066667 136.533333v102.4H187.733333V136.533333a136.942933 136.942933 0 0 1 136.533334-136.533333H989.866667a136.942933 136.942933 0 0 1 136.533333 136.533333v750.933334a136.942933 136.942933 0 0 1-136.533333 136.533333zM307.2 341.333333a42.257067 42.257067 0 0 1-42.666667 42.666667h-119.466666a42.666667 42.666667 0 0 1 0-85.333333h119.466666A42.257067 42.257067 0 0 1 307.2 341.333333z m-162.133333 128h119.466666a42.666667 42.666667 0 0 1 0 85.333334h-119.466666a42.666667 42.666667 0 0 1 0-85.333334z m0 170.666667h119.466666a42.666667 42.666667 0 0 1 0 85.333333h-119.466666a42.666667 42.666667 0 0 1 0-85.333333z" fill="#F19D00" p-id="98368"></path></svg>